# xmcd
#
# Track frame offsets:
# 150
# 10942
# 26585
# 38315
# 49781
# 61938
# 71717
# 81282
# 90616
# 100259
#
# Disc length: 1470 seconds
#
#
# Revision: 0
# Processed by: cddbd v1.5.2PL0 Copyright (c) Steve Scherf et al.
# Submitted via: FreeRIP 2.92 
#
DISCID=7405bc0a
DTITLE=Rosie and Sheri - Rosie and Sheri
DYEAR=1900
DGENRE=Country
TTITLE0=Counry Song
TTITLE1=Have I told You
TTITLE2=Heartaches by the number
TTITLE3=Log on the Fire
TTITLE4=Yellow Bird
TTITLE5=Grandma's Feather Bed
TTITLE6=Yellow Rose of Texas
TTITLE7=You are my Sunshine
TTITLE8=My Dad
TTITLE9=Tennessee Waltz
EXTD=
EXTT0=
EXTT1=
EXTT2=
EXTT3=
EXTT4=
EXTT5=
EXTT6=
EXTT7=
EXTT8=
EXTT9=
PLAYORDER=
